<svg width="24" height="24" viewBox="0 0 24 24" fill="none" xmlns="http://www.w3.org/2000/svg">
<g clip-path="url(#clip0_41_13)">
<path d="M1 11.7179C1 7.46349 1 5.33569 2.2892 4.01456C3.5784 2.69343 5.6519 2.69231 9.8 2.69231H14.2C18.3481 2.69231 20.4227 2.69231 21.7108 4.01456C22.9989 5.33682 23 7.46349 23 11.7179V13.9744C23 18.2288 23 20.3566 21.7108 21.6777C20.4216 22.9989 18.3481 23 14.2 23H9.8C5.6519 23 3.5773 23 2.2892 21.6777C1.0011 20.3555 1 18.2288 1 13.9744V11.7179Z" stroke="white" stroke-width="1.5"/>
<path d="M6.49999 2.69231V1M17.5 2.69231V1M1.54999 8.33333H22.45" stroke="white" stroke-width="1.5" stroke-linecap="round"/>
<path d="M18.6 17.359C18.6 17.6582 18.4841 17.9452 18.2778 18.1567C18.0715 18.3683 17.7917 18.4872 17.5 18.4872C17.2083 18.4872 16.9285 18.3683 16.7222 18.1567C16.5159 17.9452 16.4 17.6582 16.4 17.359C16.4 17.0598 16.5159 16.7728 16.7222 16.5612C16.9285 16.3496 17.2083 16.2308 17.5 16.2308C17.7917 16.2308 18.0715 16.3496 18.2778 16.5612C18.4841 16.7728 18.6 17.0598 18.6 17.359ZM18.6 12.8462C18.6 13.1454 18.4841 13.4323 18.2778 13.6439C18.0715 13.8555 17.7917 13.9744 17.5 13.9744C17.2083 13.9744 16.9285 13.8555 16.7222 13.6439C16.5159 13.4323 16.4 13.1454 16.4 12.8462C16.4 12.5469 16.5159 12.26 16.7222 12.0484C16.9285 11.8368 17.2083 11.7179 17.5 11.7179C17.7917 11.7179 18.0715 11.8368 18.2778 12.0484C18.4841 12.26 18.6 12.5469 18.6 12.8462ZM13.1 17.359C13.1 17.6582 12.9841 17.9452 12.7778 18.1567C12.5715 18.3683 12.2917 18.4872 12 18.4872C11.7083 18.4872 11.4285 18.3683 11.2222 18.1567C11.0159 17.9452 10.9 17.6582 10.9 17.359C10.9 17.0598 11.0159 16.7728 11.2222 16.5612C11.4285 16.3496 11.7083 16.2308 12 16.2308C12.2917 16.2308 12.5715 16.3496 12.7778 16.5612C12.9841 16.7728 13.1 17.0598 13.1 17.359ZM13.1 12.8462C13.1 13.1454 12.9841 13.4323 12.7778 13.6439C12.5715 13.8555 12.2917 13.9744 12 13.9744C11.7083 13.9744 11.4285 13.8555 11.2222 13.6439C11.0159 13.4323 10.9 13.1454 10.9 12.8462C10.9 12.5469 11.0159 12.26 11.2222 12.0484C11.4285 11.8368 11.7083 11.7179 12 11.7179C12.2917 11.7179 12.5715 11.8368 12.7778 12.0484C12.9841 12.26 13.1 12.5469 13.1 12.8462ZM7.59999 17.359C7.59999 17.6582 7.4841 17.9452 7.27781 18.1567C7.07152 18.3683 6.79173 18.4872 6.49999 18.4872C6.20826 18.4872 5.92847 18.3683 5.72218 18.1567C5.51589 17.9452 5.39999 17.6582 5.39999 17.359C5.39999 17.0598 5.51589 16.7728 5.72218 16.5612C5.92847 16.3496 6.20826 16.2308 6.49999 16.2308C6.79173 16.2308 7.07152 16.3496 7.27781 16.5612C7.4841 16.7728 7.59999 17.0598 7.59999 17.359ZM7.59999 12.8462C7.59999 13.1454 7.4841 13.4323 7.27781 13.6439C7.07152 13.8555 6.79173 13.9744 6.49999 13.9744C6.20826 13.9744 5.92847 13.8555 5.72218 13.6439C5.51589 13.4323 5.39999 13.1454 5.39999 12.8462C5.39999 12.5469 5.51589 12.26 5.72218 12.0484C5.92847 11.8368 6.20826 11.7179 6.49999 11.7179C6.79173 11.7179 7.07152 11.8368 7.27781 12.0484C7.4841 12.26 7.59999 12.5469 7.59999 12.8462Z" fill="white"/>
</g>
<defs>
<clipPath id="clip0_41_13">
<rect width="24" height="24" fill="white"/>
</clipPath>
</defs>
</svg>
