<svg width="18" height="20" viewBox="0 0 18 20" fill="none" xmlns="http://www.w3.org/2000/svg">
<path d="M0.70026 6.25974L0.023441 10.1896C-0.0162757 10.4199 -0.00535703 10.6562 0.055434 10.8819C0.116225 11.1075 0.225422 11.3171 0.375383 11.496C0.525345 11.6749 0.712451 11.8188 0.923615 11.9176C1.13478 12.0163 1.3649 12.0676 1.59789 12.0678H6.57179C6.68787 12.0678 6.80256 12.0931 6.9079 12.1421C7.01324 12.191 7.1067 12.2623 7.1818 12.3512C7.25689 12.44 7.31181 12.5441 7.34274 12.6564C7.37368 12.7686 7.37988 12.8863 7.36093 13.0012L6.72443 16.8973C6.62162 17.53 6.65104 18.1771 6.81083 18.7977C6.87982 19.0539 7.01202 19.2886 7.19525 19.48C7.37848 19.6714 7.60682 19.8134 7.85918 19.8929L7.99839 19.9382C8.31317 20.0392 8.65453 20.0158 8.95266 19.8727C9.27907 19.7147 9.51715 19.4267 9.60547 19.0848L10.0624 17.3183C10.2077 16.756 10.4191 16.2131 10.6922 15.701C11.0906 14.9526 11.707 14.3526 12.3483 13.7987L13.7298 12.6043C13.9214 12.4382 14.0711 12.2288 14.1665 11.9934C14.262 11.758 14.3005 11.5033 14.2789 11.2501L13.4993 2.20274C13.465 1.80262 13.2823 1.42996 12.9875 1.15837C12.6926 0.886776 12.3069 0.735988 11.9067 0.735783L7.44445 0.735783C4.10164 0.735783 1.2494 3.07251 0.70026 6.25974Z" fill="white"/>
<path fill-rule="evenodd" clip-rule="evenodd" d="M17.3106 12.7902C17.1251 12.7984 16.9436 12.7343 16.8041 12.6113C16.6645 12.4884 16.5777 12.3161 16.5618 12.1305L15.6306 1.30793C15.6148 1.14676 15.6319 0.984066 15.6809 0.829769C15.7299 0.675473 15.8098 0.532818 15.9156 0.410516C16.0214 0.288215 16.1509 0.188834 16.2963 0.118444C16.4416 0.048055 16.5998 0.00813404 16.761 0.00111976C16.9223 -0.00589451 17.0832 0.0201453 17.2341 0.0776485C17.385 0.135152 17.5226 0.222911 17.6386 0.335567C17.7545 0.448224 17.8464 0.583411 17.9085 0.732874C17.9706 0.882336 18.0017 1.04294 17.9999 1.20487L17.9999 12.0688C17.9998 12.255 17.9281 12.434 17.7997 12.5684C17.6712 12.7028 17.496 12.7823 17.3106 12.7902Z" fill="white"/>
</svg>
