<svg width="19" height="20" viewBox="0 0 19 20" fill="none" xmlns="http://www.w3.org/2000/svg">
<path d="M17.5497 13.7401L18.2265 9.8102C18.2662 9.57987 18.2553 9.34361 18.1945 9.11795C18.1337 8.89229 18.0245 8.68268 17.8746 8.50379C17.7246 8.32489 17.5375 8.18102 17.3263 8.08225C17.1152 7.98348 16.885 7.93218 16.6521 7.93196H11.6782C11.5621 7.93198 11.4474 7.90665 11.342 7.85773C11.2367 7.8088 11.1432 7.73746 11.0681 7.64864C10.9931 7.55983 10.9381 7.45568 10.9072 7.34343C10.8763 7.23118 10.8701 7.11352 10.889 6.99861L11.5255 3.10247C11.6283 2.46984 11.5989 1.82268 11.4391 1.20207C11.3701 0.945866 11.2379 0.711228 11.0547 0.51982C10.8715 0.328413 10.6431 0.186406 10.3908 0.106911L10.2516 0.0616407C9.93677 -0.0393985 9.59541 -0.0159687 9.29728 0.127138C8.97087 0.285103 8.73279 0.573101 8.64447 0.915037L8.18749 2.68155C8.04225 3.24378 7.83084 3.78667 7.55771 4.29876C7.1593 5.04717 6.54296 5.64724 5.90167 6.20108L4.52019 7.39545C4.32854 7.56162 4.17885 7.77097 4.0834 8.00637C3.98795 8.24177 3.94945 8.49651 3.97105 8.74971L4.75059 17.7971C4.78495 18.1972 4.9676 18.5698 5.26247 18.8414C5.55734 19.113 5.943 19.2638 6.34328 19.264H10.8055C14.1483 19.264 17.0005 16.9273 17.5497 13.7401Z" fill="white"/>
<path fill-rule="evenodd" clip-rule="evenodd" d="M0.939313 7.20955C1.12485 7.20141 1.30634 7.26551 1.44588 7.38847C1.58542 7.51142 1.67222 7.68371 1.68813 7.86935L2.61936 18.6919C2.63514 18.853 2.618 19.0157 2.569 19.17C2.52 19.3243 2.44017 19.467 2.33437 19.5893C2.22858 19.7116 2.09904 19.811 1.95368 19.8814C1.80832 19.9517 1.65018 19.9917 1.48893 19.9987C1.32768 20.0057 1.16669 19.9797 1.0158 19.9222C0.864916 19.8646 0.727296 19.7769 0.611348 19.6642C0.4954 19.5516 0.403559 19.4164 0.341433 19.2669C0.279307 19.1175 0.248201 18.9569 0.250014 18.7949V7.93099C0.250092 7.74479 0.32183 7.5658 0.45026 7.43139C0.57869 7.29697 0.753893 7.2175 0.939313 7.20955Z" fill="white"/>
</svg>
