<svg width="20" height="24" viewBox="0 0 20 24" fill="none" xmlns="http://www.w3.org/2000/svg">
<g clip-path="url(#clip0_41_12)">
<path d="M10 9.8C12.4853 9.8 14.5 7.83005 14.5 5.4C14.5 2.96995 12.4853 1 10 1C7.51472 1 5.5 2.96995 5.5 5.4C5.5 7.83005 7.51472 9.8 10 9.8Z" stroke="white" stroke-width="1.5"/>
<path d="M18.9977 18.6C18.9992 18.4196 19 18.2363 19 18.05C19 15.3165 14.9703 13.1 10 13.1C5.02975 13.1 1 15.3165 1 18.05C1 20.7835 1 23 10 23C12.5099 23 14.32 22.8273 15.625 22.5193" stroke="white" stroke-width="1.5" stroke-linecap="round"/>
</g>
<defs>
<clipPath id="clip0_41_12">
<rect width="20" height="24" fill="white"/>
</clipPath>
</defs>
</svg>
